<svg xmlns="http://www.w3.org/2000/svg" viewBox="0 0 632.2 203.1"><path d="M433.6 203.1c1.1-10.5 3.1-20.7 6.4-30.7 4.4-13.3 10.9-25.6 18.1-37.6 3.2-5.3 6.5-10.5 9.8-15.7 0.4-0.5 0.7-1.1 1.2-2 -156.5 0-312.7 0-469.1 0 0-11.2 0-22.2 0-33.4 156.1 0 312 0 468.5 0 -0.6-0.9-0.9-1.5-1.3-2.1 -8.3-12.3-16.3-24.7-22.7-38.1 -6.1-12.8-9.8-26.3-10.8-40.5 -0.1-1 0-1.9 0-3.1 0.3 0.2 0.6 0.3 0.8 0.5 26.4 25.9 57.2 45.4 90.4 61.2 28.9 13.7 58.9 24.4 89.3 34.2 5.8 1.9 11.6 3.7 18 5.7 -1.3 0.4-2.2 0.7-3.1 1 -31.6 9.5-62.8 20.3-92.8 34.2 -35.1 16.2-67.7 36.3-97 61.8 -1.8 1.6-3.6 3.1-5.4 4.7C433.9 203.2 433.9 203.1 433.6 203.1z"/></svg>