<?xml version="1.0" encoding="utf-8"?>
<!-- Generator: Adobe Illustrator 24.2.0, SVG Export Plug-In . SVG Version: 6.00 Build 0)  -->
<svg version="1.1" id="Layer_1" xmlns="http://www.w3.org/2000/svg" xmlns:xlink="http://www.w3.org/1999/xlink" x="0px" y="0px"
	 viewBox="0 0 203.3 632.2" style="enable-background:new 0 0 203.3 632.2;" xml:space="preserve">
<path d="M0.1,433.6c10.5,1.1,20.7,3.1,30.7,6.4c13.3,4.4,25.6,10.9,37.6,18.1c5.3,3.2,10.5,6.5,15.7,9.8c0.5,0.4,1.1,0.7,2,1.2
	c0-156.5,0-312.7,0-469.1c11.2,0,22.2,0,33.4,0c0,156.1,0,312,0,468.5c0.9-0.6,1.5-0.9,2.1-1.3c12.3-8.3,24.7-16.3,38.1-22.7
	c12.8-6.1,26.3-9.8,40.5-10.8c1-0.1,1.9,0,3.1,0c-0.2,0.3-0.3,0.6-0.5,0.8c-25.9,26.4-45.4,57.2-61.2,90.4
	c-13.7,28.9-24.4,58.9-34.2,89.3c-1.9,5.8-3.7,11.6-5.7,18c-0.4-1.3-0.7-2.2-1-3.1c-9.5-31.6-20.3-62.8-34.2-92.8
	c-16.2-35.1-36.3-67.7-61.8-97c-1.6-1.8-3.1-3.6-4.7-5.4C0,433.9,0.1,433.9,0.1,433.6z"/>
</svg>
