<?xml version="1.0" encoding="utf-8"?>
<!-- Generator: Adobe Illustrator 24.2.0, SVG Export Plug-In . SVG Version: 6.00 Build 0)  -->
<svg version="1.1" id="Layer_1" xmlns="http://www.w3.org/2000/svg" xmlns:xlink="http://www.w3.org/1999/xlink" x="0px" y="0px"
	 viewBox="0 0 632.2 203.1" style="enable-background:new 0 0 632.2 203.1;" xml:space="preserve">
<path d="M198.6,0c-1.1,10.5-3.1,20.7-6.4,30.7c-4.4,13.3-10.9,25.6-18.1,37.6c-3.2,5.3-6.5,10.5-9.8,15.7c-0.4,0.5-0.7,1.1-1.2,2
	c156.5,0,312.7,0,469.1,0c0,11.2,0,22.2,0,33.4c-156.1,0-312,0-468.5,0c0.6,0.9,0.9,1.5,1.3,2.1c8.3,12.3,16.3,24.7,22.7,38.1
	c6.1,12.8,9.8,26.3,10.8,40.5c0.1,1,0,1.9,0,3.1c-0.3-0.2-0.6-0.3-0.8-0.5c-26.4-25.9-57.2-45.4-90.4-61.2
	c-28.9-13.7-58.9-24.4-89.3-34.2c-5.8-1.9-11.6-3.7-18-5.7c1.3-0.4,2.2-0.7,3.1-1c31.6-9.5,62.8-20.3,92.8-34.2
	c35.1-16.2,67.7-36.3,97-61.8c1.8-1.6,3.6-3.1,5.4-4.7C198.3-0.1,198.3,0,198.6,0z"/>
</svg>
