<svg xmlns="http://www.w3.org/2000/svg" viewBox="0 0 551.12 241.19">
  <g>
    <path d="M0,238.62V82.52H34.21v156.1Z" style="fill: #282827"/>
    <path d="M190.45,238.62v-90a72.44,72.44,0,0,1,.64-10.7,54.16,54.16,0,0,1-2.78,6l-34.86,63.94h-13l-35.5-63.94a33.33,33.33,0,0,1-2.78-6c0,.65.64,5.56.64,10.7v90H68.56V82.52h33.57l42.13,76.13a52.34,52.34,0,0,1,3,7,34,34,0,0,1,2.78-7l39.78-76.13h34.85v156.1Z" style="fill: #282827"/>
    <path d="M332.49,241.19c-47.47,0-79.76-31.44-79.76-81.47C252.73,112.89,288,80,331.85,80c22.88,0,40.2,6.62,56.24,23.09L368.85,125.5c-10.48-10.47-22.46-15.61-37-15.61-26.73,0-43.83,21.17-43.83,49.83,0,32.07,15.61,51.53,44.47,51.53,19.67,0,29.3-8.34,39.35-17.75L391.51,216C377,231.56,359.65,241.19,332.49,241.19Z" style="fill: #282827"/>
    <polygon points="518.28 32.9 518.28 97.14 453.98 97.14 453.98 130.04 551.12 130.04 551.12 32.9 518.28 32.9" style="fill: #ef3f24"/>
    <polygon points="518.28 32.9 518.28 0 421.14 0 421.14 97.14 453.98 97.14 453.98 32.9 518.28 32.9" style="fill: #85c5d2"/>
  </g>
</svg>
