<svg id="Layer_1" data-name="Layer 1" xmlns="http://www.w3.org/2000/svg" viewBox="0 0 531.81 316.49">
  <g>
    <g>
      <path d="M0,238.64V82.48H34.25V238.64Z" style="fill: #282827"/>
      <path d="M178.83,238.64V148.58a72.26,72.26,0,0,1,.64-10.69,56,56,0,0,1-2.78,6l-34.87,64h-13l-35.51-64a32.94,32.94,0,0,1-2.78-6c0,.64.64,5.56.64,10.69v90.06H56.89V82.48H90.48l42.14,76.16a54.22,54.22,0,0,1,3,7.06,33.38,33.38,0,0,1,2.78-7.06l39.79-76.16h34.87V238.64Z" style="fill: #282827"/>
      <path d="M310.25,241.21c-47.48,0-79.79-31.45-79.79-81.5,0-46.85,35.3-79.8,79.15-79.8,22.89,0,40.22,6.64,56.26,23.11l-19.25,22.46c-10.48-10.48-22.46-15.62-37-15.62-26.74,0-43.85,21.18-43.85,49.85,0,32.09,15.62,51.55,44.49,51.55,19.68,0,29.31-8.34,39.37-17.75L369.3,216C354.75,231.58,337.42,241.21,310.25,241.21Z" style="fill: #282827"/>
      <path d="M0,315.82V275.49H5.53v35.14h15.3v5.19Z" style="fill: #282827"/>
      <path d="M39,315.82V275.49h5.52v40.33Z" style="fill: #282827"/>
      <path d="M82.09,316.49c-9.83,0-19.78-8-19.78-20.83,0-11.66,8.4-20.83,20-20.83,7.3,0,11.66,2.49,14.92,6.3l-4.09,3.64a14.32,14.32,0,0,0-10.72-4.53c-7.84,0-14.36,6.08-14.36,15.31,0,10.38,8,15.52,14.14,15.52A15.52,15.52,0,0,0,94,305.49l4,3.43C94.91,313.23,89.16,316.49,82.09,316.49Z" style="fill: #282827"/>
      <path d="M116,315.82V275.49h22.54v5.2h-17v12.87H138.1v5.19H121.47v11.88h18.07v5.19Z" style="fill: #282827"/>
      <path d="M187.22,315.82,166.06,286.6c-.22-.33-.71-1.11-.71-1.11s.1.89.1,1.33v29h-5.52V275.49h4.7l20.88,28.68.72,1.1a5.93,5.93,0,0,1-.11-1.27V275.49h5.52v40.33Z" style="fill: #282827"/>
      <path d="M223,316.49a17.92,17.92,0,0,1-11.82-4.09l3.14-4.26a13.44,13.44,0,0,0,8.4,3c4.09,0,6.91-1.83,6.91-5.64,0-3.42-3.15-5.3-6.74-7.13-5.75-2.92-11.6-5.47-11.6-13.14,0-6,4.42-10.39,11.65-10.39a18.73,18.73,0,0,1,10.89,3.42l-3,4.53a12,12,0,0,0-8-2.54c-3.15,0-5.8,1.61-5.8,4.64,0,4.37,3.86,5.86,8.84,8.35,4.58,2.26,9.44,5.19,9.44,11.93C235.36,312.4,229.73,316.49,223,316.49Z" style="fill: #282827"/>
      <path d="M254.37,315.82V275.49h5.53v40.33Z" style="fill: #282827"/>
      <path d="M309,315.82,287.86,286.6l-.72-1.11s.11.89.11,1.33v29h-5.52V275.49h4.69l20.88,28.68.72,1.1a6.68,6.68,0,0,1-.11-1.27V275.49h5.53v40.33Z" style="fill: #282827"/>
      <path d="M350.77,316.49a20.69,20.69,0,0,1-20.44-20.83c0-12.49,9.39-20.83,20.5-20.83a21.19,21.19,0,0,1,14.86,5.47l-3.37,4.09a16.8,16.8,0,0,0-11.6-4.15c-8.12,0-14.64,6.14-14.64,15.47,0,8.18,6.68,15.36,14.86,15.36,5.8,0,10.44-3.26,11.88-8.12H350.66v-5.19h18.56A18.5,18.5,0,0,1,350.77,316.49Z" style="fill: #282827"/>
    </g>
    <polygon points="498.19 33.68 498.19 99.46 432.35 99.46 432.35 133.15 531.81 133.15 531.81 33.68 498.19 33.68" style="fill: #ef4024"/>
    <polygon points="498.19 33.68 498.19 0 398.73 0 398.73 99.46 432.35 99.46 432.35 33.68 498.19 33.68" style="fill: #86c5d1"/>
  </g>
</svg>
